<svg width="237" height="117" viewBox="0 0 237 117" fill="none" xmlns="http://www.w3.org/2000/svg">
<path d="M167.908 1.73633L168.243 1.60742C183.693 42.015 220.044 91.6262 236.338 111.411L232.479 114.589C228.365 109.594 222.964 102.691 216.932 94.5L214.408 94.5938V111.917L211.992 111.999L135.491 114.577L135.479 114.589C135.476 114.585 135.473 114.582 135.47 114.578L124.408 114.951V115H17.4082V98.6475C13.0142 104.737 8.47092 110.614 3.81641 116.115L0 112.885C30.5603 76.7679 56.4762 23.9365 65.6006 2.03809L65.9082 2.16699V0H167.908V1.73633ZM66.4082 12.6973C57.492 32.4427 41.1714 64.4566 21.4004 93H22.4082V110H43.8281C47.6507 100.997 53.2608 87.356 57.9463 75.0312C60.3358 68.7459 62.4745 62.8292 64.0127 58.0557C64.7823 55.6673 65.3926 53.5936 65.8076 51.918C66.2378 50.1811 66.4082 49.0641 66.4082 48.5V12.6973ZM66.4082 66.5303C65.2625 69.7596 63.9788 73.2348 62.6201 76.8086C58.2337 88.3467 53.0491 101.01 49.2568 110H66.4082V66.5303ZM71.4082 110H119.408V93.7842C103.713 72.408 83.9228 42.5405 71.4082 14.9248V110ZM124.408 109.947L131.538 109.707C129.365 106.97 126.967 103.883 124.408 100.5V109.947ZM128.614 97.7715C132.008 102.252 135.109 106.207 137.774 109.496L209.408 107.082V94.7783L128.614 97.7715ZM72.583 5C84.785 35.0899 107.688 69.5751 124.971 92.9033L213.384 89.6289C196.279 65.9223 175.396 33.4718 164.198 5H72.583Z" fill="white"/>
</svg>
